<svg width="500" height="300" viewBox="0 0 500 300" fill="none" xmlns="http://www.w3.org/2000/svg">
<rect width="500" height="300" fill="white"/>
<path d="M187.434 131.261H95.5148C96.317 142.376 100.328 151.36 107.548 158.214C114.769 165.069 123.779 168.496 134.578 168.496C142.23 168.496 149.111 166.52 155.221 162.568C161.33 158.554 166.051 152.997 169.383 145.895H184.194C179.504 157.196 172.901 165.871 164.385 171.923C155.93 177.974 146.118 181 134.948 181C120.138 181 107.61 175.72 97.3661 165.161C87.122 154.602 82 141.913 82 127.093C82 111.593 86.9986 98.7804 96.9959 88.6535C107.055 78.5266 119.891 73.4631 135.504 73.4631C150.808 73.4631 163.274 78.7427 172.901 89.3019C182.589 99.7993 187.434 113.477 187.434 130.334V131.261ZM172.993 120.238C170.525 108.815 165.989 100.232 159.386 94.4888C152.783 88.6844 144.174 85.7822 133.56 85.7822C123.686 85.7822 115.324 88.9005 108.474 95.1372C101.624 101.312 97.4278 109.679 95.8851 120.238H172.993Z" fill="black"/>
<path d="M283.981 107.549C279.97 100.139 275.064 94.6741 269.263 91.1544C263.524 87.5729 256.674 85.7822 248.713 85.7822C238.222 85.7822 229.305 89.765 221.961 97.7307C214.679 105.696 211.038 115.545 211.038 127.278C211.038 139.01 214.71 148.828 222.054 156.732C229.398 164.575 238.469 168.496 249.269 168.496C257.168 168.496 264.141 166.551 270.189 162.66C276.236 158.77 280.834 153.305 283.981 146.266H298.422C294.472 157.319 288.27 165.871 279.816 171.923C271.361 177.974 261.395 181 249.917 181C235.168 181 222.702 175.782 212.519 165.346C202.399 154.849 197.338 142.221 197.338 127.463C197.338 112.396 202.461 99.6449 212.705 89.2093C223.01 78.7118 235.538 73.4631 250.287 73.4631C261.333 73.4631 271.053 76.458 279.445 82.4477C287.9 88.3756 294.225 96.7427 298.422 107.549H283.981Z" fill="black"/>
<path d="M325.636 127.093C325.636 138.825 329.37 148.674 336.837 156.64C344.304 164.544 353.592 168.496 364.7 168.496C375.623 168.496 384.787 164.544 392.192 156.64C399.597 148.674 403.3 138.763 403.3 126.907C403.3 114.866 399.536 104.986 392.007 97.2676C384.54 89.4871 375.036 85.5969 363.496 85.5969C353.129 85.5969 344.211 89.5798 336.744 97.5455C329.339 105.511 325.636 115.36 325.636 127.093ZM311.936 127.278C311.936 112.334 317.058 99.5523 327.303 88.9314C337.547 78.3105 349.673 73 363.681 73C378.43 73 390.989 78.2178 401.356 88.6535C411.785 99.0892 417 111.532 417 125.981C417 141.172 411.909 154.139 401.726 164.883C391.544 175.628 379.202 181 364.7 181C349.951 181 337.454 175.751 327.21 165.254C317.028 154.695 311.936 142.036 311.936 127.278Z" fill="black"/>
<path d="M181.584 193V203.151C182.687 201.813 183.895 200.825 185.209 200.187C186.522 199.549 187.991 199.23 189.615 199.23C192.49 199.23 194.919 200.274 196.902 202.363C198.897 204.452 199.894 206.992 199.894 209.981C199.894 213.071 198.878 215.66 196.846 217.749C194.813 219.826 192.26 220.864 189.187 220.864C187.675 220.864 186.287 220.564 185.023 219.964C183.771 219.351 182.625 218.431 181.584 217.205V220.32H179V193H181.584ZM181.584 210.206C181.584 212.408 182.352 214.328 183.889 215.967C185.438 217.593 187.216 218.406 189.224 218.406C191.418 218.406 193.283 217.587 194.82 215.948C196.369 214.309 197.143 212.283 197.143 209.869C197.143 207.579 196.375 205.647 194.838 204.071C193.301 202.482 191.461 201.688 189.317 201.688C187.173 201.688 185.345 202.513 183.833 204.164C182.334 205.816 181.584 207.83 181.584 210.206Z" fill="black"/>
<path d="M200.341 199.68H203.352L209.672 216.436L216.29 199.68H219.339L208.297 227H205.49L208.222 220.283L200.341 199.68Z" fill="black"/>
<path d="M248.617 209.869C248.617 207.68 247.842 205.772 246.293 204.146C244.744 202.507 242.96 201.688 240.94 201.688C238.746 201.688 236.875 202.507 235.326 204.146C233.789 205.772 233.021 207.792 233.021 210.206C233.021 212.508 233.789 214.453 235.326 216.042C236.862 217.618 238.709 218.406 240.865 218.406C242.947 218.406 244.757 217.574 246.293 215.911C247.842 214.234 248.617 212.22 248.617 209.869ZM248.617 217.055C247.799 218.244 246.69 219.175 245.29 219.851C243.902 220.526 242.402 220.864 240.791 220.864C237.792 220.864 235.295 219.832 233.299 217.768C231.304 215.692 230.307 213.134 230.307 210.094C230.307 207.004 231.323 204.421 233.355 202.344C235.4 200.268 237.953 199.23 241.014 199.23C242.588 199.23 244.032 199.555 245.345 200.205C246.659 200.843 247.75 201.769 248.617 202.982V199.68H251.182V220.32H248.617V217.055Z" fill="black"/>
<path d="M255.365 220.32V193H257.986V220.32H255.365Z" fill="black"/>
<path d="M262.28 220.32V193H264.901V220.32H262.28Z" fill="black"/>
<path d="M269.084 199.68H271.668V210.638C271.668 213.453 272.12 215.448 273.025 216.624C273.929 217.787 275.417 218.369 277.486 218.369C278.664 218.369 279.698 218.131 280.591 217.656C281.483 217.168 282.202 216.467 282.747 215.554C283.057 215.016 283.28 214.384 283.416 213.659C283.553 212.921 283.621 211.645 283.621 209.831V199.68H286.242V220.32H283.621V218.087C282.828 219.063 281.941 219.77 280.962 220.208C279.983 220.645 278.8 220.864 277.412 220.864C274.462 220.864 272.337 220.064 271.036 218.462C269.734 216.849 269.084 214.178 269.084 210.45V199.68Z" fill="black"/>
<path d="M293.045 220.32H290.387V199.68H292.86V202.063C293.504 201.15 294.204 200.481 294.96 200.055C295.729 199.63 296.621 199.405 297.637 199.38L297.656 202.251C296.007 202.401 294.824 202.901 294.105 203.752C293.399 204.59 293.045 205.96 293.045 207.861V220.32Z" fill="black"/>
<path d="M320 210.826H301.541C301.702 213.077 302.507 214.897 303.957 216.286C305.407 217.674 307.217 218.369 309.385 218.369C310.922 218.369 312.304 217.968 313.531 217.168C314.758 216.355 315.706 215.229 316.375 213.79H319.349C318.408 216.079 317.081 217.837 315.371 219.063C313.673 220.289 311.703 220.902 309.46 220.902C306.486 220.902 303.97 219.832 301.913 217.693C299.855 215.554 298.827 212.983 298.827 209.981C298.827 206.841 299.831 204.246 301.838 202.194C303.858 200.143 306.436 199.117 309.571 199.117C312.645 199.117 315.148 200.187 317.081 202.326C319.027 204.452 320 207.223 320 210.638V210.826ZM317.1 208.593C316.604 206.279 315.693 204.54 314.367 203.376C313.041 202.201 311.313 201.613 309.181 201.613C307.198 201.613 305.519 202.244 304.143 203.508C302.768 204.759 301.925 206.454 301.615 208.593H317.1Z" fill="black"/>
</svg>
